<mxfile host="app.diagrams.net" agent="Mozilla/5.0 (Windows NT 10.0; Win64; x64) AppleWebKit/537.36 (KHTML, like Gecko) Chrome/137.0.0.0 Safari/537.36" version="27.1.4">
  <diagram name="PÃ¡gina-1" id="1mhWh0dtrSKiMYKlcks6">
    <mxGraphModel dx="1281" dy="596" grid="0" gridSize="10" guides="1" tooltips="1" connect="1" arrows="1" fold="1" page="1" pageScale="1" pageWidth="827" pageHeight="1169" math="0" shadow="0">
      <root>
        <mxCell id="0" />
        <mxCell id="1" parent="0" />
        <mxCell id="FLUQt_370B9gIvD1hoNB-1" value="persona" style="rounded=0;whiteSpace=wrap;html=1;shadow=1;" parent="1" vertex="1">
          <mxGeometry x="250" y="131.88" width="70" height="26.25" as="geometry" />
        </mxCell>
        <mxCell id="FLUQt_370B9gIvD1hoNB-2" value="puesto" style="rounded=0;whiteSpace=wrap;html=1;shadow=1;" parent="1" vertex="1">
          <mxGeometry x="540" y="133.75" width="70" height="22.5" as="geometry" />
        </mxCell>
        <mxCell id="FLUQt_370B9gIvD1hoNB-15" style="edgeStyle=orthogonalEdgeStyle;rounded=0;orthogonalLoop=1;jettySize=auto;html=1;exitX=0;exitY=0.5;exitDx=0;exitDy=0;endArrow=none;startFill=0;shadow=1;" parent="1" source="FLUQt_370B9gIvD1hoNB-3" target="FLUQt_370B9gIvD1hoNB-1" edge="1">
          <mxGeometry relative="1" as="geometry" />
        </mxCell>
        <mxCell id="FLUQt_370B9gIvD1hoNB-16" style="edgeStyle=orthogonalEdgeStyle;rounded=0;orthogonalLoop=1;jettySize=auto;html=1;exitX=1;exitY=0.5;exitDx=0;exitDy=0;endArrow=none;startFill=0;shadow=1;" parent="1" source="FLUQt_370B9gIvD1hoNB-3" target="FLUQt_370B9gIvD1hoNB-2" edge="1">
          <mxGeometry relative="1" as="geometry" />
        </mxCell>
        <mxCell id="FLUQt_370B9gIvD1hoNB-3" value="ocupacion" style="rhombus;whiteSpace=wrap;html=1;shadow=1;" parent="1" vertex="1">
          <mxGeometry x="378.5" y="120" width="80" height="50" as="geometry" />
        </mxCell>
        <mxCell id="FLUQt_370B9gIvD1hoNB-4" value="&lt;u&gt;legajo&lt;/u&gt;" style="ellipse;whiteSpace=wrap;html=1;shadow=1;" parent="1" vertex="1">
          <mxGeometry x="190" y="60" width="70" height="40" as="geometry" />
        </mxCell>
        <mxCell id="FLUQt_370B9gIvD1hoNB-5" value="nombre" style="ellipse;whiteSpace=wrap;html=1;shadow=1;" parent="1" vertex="1">
          <mxGeometry x="150" y="125" width="70" height="40" as="geometry" />
        </mxCell>
        <mxCell id="FLUQt_370B9gIvD1hoNB-6" value="fecha_ingreso" style="ellipse;whiteSpace=wrap;html=1;shadow=1;" parent="1" vertex="1">
          <mxGeometry x="173" y="180" width="87" height="40" as="geometry" />
        </mxCell>
        <mxCell id="FLUQt_370B9gIvD1hoNB-7" value="horario_hora" style="ellipse;whiteSpace=wrap;html=1;shadow=1;" parent="1" vertex="1">
          <mxGeometry x="327" y="190" width="86.5" height="40" as="geometry" />
        </mxCell>
        <mxCell id="FLUQt_370B9gIvD1hoNB-8" value="horario_semana" style="ellipse;whiteSpace=wrap;html=1;shadow=1;" parent="1" vertex="1">
          <mxGeometry x="360.25" y="50" width="116.5" height="40" as="geometry" />
        </mxCell>
        <mxCell id="FLUQt_370B9gIvD1hoNB-9" value="tipo_ocupacion" style="ellipse;whiteSpace=wrap;html=1;shadow=1;" parent="1" vertex="1">
          <mxGeometry x="430" y="190" width="88.5" height="40" as="geometry" />
        </mxCell>
        <mxCell id="FLUQt_370B9gIvD1hoNB-11" value="sueldo_referencia" style="ellipse;whiteSpace=wrap;html=1;shadow=1;" parent="1" vertex="1">
          <mxGeometry x="560" y="180" width="120" height="40" as="geometry" />
        </mxCell>
        <mxCell id="FLUQt_370B9gIvD1hoNB-12" value="grado_peligro" style="ellipse;whiteSpace=wrap;html=1;shadow=1;" parent="1" vertex="1">
          <mxGeometry x="650" y="145" width="90" height="35" as="geometry" />
        </mxCell>
        <mxCell id="FLUQt_370B9gIvD1hoNB-13" value="nombre_descrip" style="ellipse;whiteSpace=wrap;html=1;shadow=1;" parent="1" vertex="1">
          <mxGeometry x="640" y="93.75" width="100" height="40" as="geometry" />
        </mxCell>
        <mxCell id="FLUQt_370B9gIvD1hoNB-14" value="&lt;u&gt;puesto_id&lt;/u&gt;" style="ellipse;whiteSpace=wrap;html=1;shadow=1;" parent="1" vertex="1">
          <mxGeometry x="560" y="60" width="70" height="40" as="geometry" />
        </mxCell>
        <mxCell id="FLUQt_370B9gIvD1hoNB-19" value="(1,n)" style="text;html=1;align=center;verticalAlign=middle;whiteSpace=wrap;rounded=0;shadow=1;" parent="1" vertex="1">
          <mxGeometry x="310" y="120" width="60" height="30" as="geometry" />
        </mxCell>
        <mxCell id="FLUQt_370B9gIvD1hoNB-20" value="(n,n)" style="text;html=1;align=center;verticalAlign=middle;whiteSpace=wrap;rounded=0;shadow=1;" parent="1" vertex="1">
          <mxGeometry x="490" y="120" width="60" height="30" as="geometry" />
        </mxCell>
        <mxCell id="FLUQt_370B9gIvD1hoNB-21" value="(1,3)" style="text;html=1;align=center;verticalAlign=middle;whiteSpace=wrap;rounded=0;shadow=1;" parent="1" vertex="1">
          <mxGeometry x="350" y="115" width="60" height="30" as="geometry" />
        </mxCell>
        <mxCell id="FLUQt_370B9gIvD1hoNB-22" value="" style="endArrow=none;html=1;rounded=0;entryX=1;entryY=0.5;entryDx=0;entryDy=0;exitX=0;exitY=0.5;exitDx=0;exitDy=0;shadow=1;" parent="1" source="FLUQt_370B9gIvD1hoNB-1" target="FLUQt_370B9gIvD1hoNB-5" edge="1">
          <mxGeometry width="50" height="50" relative="1" as="geometry">
            <mxPoint x="390" y="210" as="sourcePoint" />
            <mxPoint x="440" y="160" as="targetPoint" />
          </mxGeometry>
        </mxCell>
        <mxCell id="FLUQt_370B9gIvD1hoNB-23" value="" style="endArrow=none;html=1;rounded=0;entryX=1;entryY=0;entryDx=0;entryDy=0;exitX=0.25;exitY=1;exitDx=0;exitDy=0;shadow=1;" parent="1" source="FLUQt_370B9gIvD1hoNB-1" target="FLUQt_370B9gIvD1hoNB-6" edge="1">
          <mxGeometry width="50" height="50" relative="1" as="geometry">
            <mxPoint x="270" y="150" as="sourcePoint" />
            <mxPoint x="240" y="150" as="targetPoint" />
          </mxGeometry>
        </mxCell>
        <mxCell id="FLUQt_370B9gIvD1hoNB-24" value="" style="endArrow=none;html=1;rounded=0;entryX=0.945;entryY=0.731;entryDx=0;entryDy=0;entryPerimeter=0;exitX=0.25;exitY=0;exitDx=0;exitDy=0;shadow=1;" parent="1" source="FLUQt_370B9gIvD1hoNB-1" target="FLUQt_370B9gIvD1hoNB-4" edge="1">
          <mxGeometry width="50" height="50" relative="1" as="geometry">
            <mxPoint x="270" y="130" as="sourcePoint" />
            <mxPoint x="260" y="120" as="targetPoint" />
          </mxGeometry>
        </mxCell>
        <mxCell id="FLUQt_370B9gIvD1hoNB-25" value="" style="endArrow=none;html=1;rounded=0;entryX=0.5;entryY=1;entryDx=0;entryDy=0;exitX=0.5;exitY=0;exitDx=0;exitDy=0;shadow=1;" parent="1" source="FLUQt_370B9gIvD1hoNB-3" target="FLUQt_370B9gIvD1hoNB-8" edge="1">
          <mxGeometry width="50" height="50" relative="1" as="geometry">
            <mxPoint x="450" y="100" as="sourcePoint" />
            <mxPoint x="420" y="100" as="targetPoint" />
          </mxGeometry>
        </mxCell>
        <mxCell id="FLUQt_370B9gIvD1hoNB-26" value="" style="endArrow=none;html=1;rounded=0;exitX=0.661;exitY=0.029;exitDx=0;exitDy=0;entryX=0;entryY=1;entryDx=0;entryDy=0;exitPerimeter=0;shadow=1;" parent="1" source="FLUQt_370B9gIvD1hoNB-7" target="FLUQt_370B9gIvD1hoNB-3" edge="1">
          <mxGeometry width="50" height="50" relative="1" as="geometry">
            <mxPoint x="470" y="200" as="sourcePoint" />
            <mxPoint x="420" y="180" as="targetPoint" />
          </mxGeometry>
        </mxCell>
        <mxCell id="FLUQt_370B9gIvD1hoNB-27" value="" style="endArrow=none;html=1;rounded=0;entryX=1;entryY=1;entryDx=0;entryDy=0;exitX=0.293;exitY=0.045;exitDx=0;exitDy=0;exitPerimeter=0;shadow=1;" parent="1" source="FLUQt_370B9gIvD1hoNB-9" target="FLUQt_370B9gIvD1hoNB-3" edge="1">
          <mxGeometry width="50" height="50" relative="1" as="geometry">
            <mxPoint x="450" y="180" as="sourcePoint" />
            <mxPoint x="420" y="180" as="targetPoint" />
          </mxGeometry>
        </mxCell>
        <mxCell id="FLUQt_370B9gIvD1hoNB-28" value="" style="endArrow=none;html=1;rounded=0;entryX=0.5;entryY=1;entryDx=0;entryDy=0;exitX=0.75;exitY=0;exitDx=0;exitDy=0;shadow=1;" parent="1" source="FLUQt_370B9gIvD1hoNB-2" target="FLUQt_370B9gIvD1hoNB-14" edge="1">
          <mxGeometry width="50" height="50" relative="1" as="geometry">
            <mxPoint x="590" y="150" as="sourcePoint" />
            <mxPoint x="560" y="150" as="targetPoint" />
          </mxGeometry>
        </mxCell>
        <mxCell id="FLUQt_370B9gIvD1hoNB-29" value="" style="endArrow=none;html=1;rounded=0;entryX=1;entryY=0.25;entryDx=0;entryDy=0;exitX=0;exitY=0.5;exitDx=0;exitDy=0;shadow=1;" parent="1" source="FLUQt_370B9gIvD1hoNB-13" target="FLUQt_370B9gIvD1hoNB-2" edge="1">
          <mxGeometry width="50" height="50" relative="1" as="geometry">
            <mxPoint x="660" y="140" as="sourcePoint" />
            <mxPoint x="630" y="140" as="targetPoint" />
          </mxGeometry>
        </mxCell>
        <mxCell id="FLUQt_370B9gIvD1hoNB-30" value="" style="endArrow=none;html=1;rounded=0;entryX=1;entryY=0.75;entryDx=0;entryDy=0;exitX=0;exitY=0.5;exitDx=0;exitDy=0;shadow=1;" parent="1" source="FLUQt_370B9gIvD1hoNB-12" target="FLUQt_370B9gIvD1hoNB-2" edge="1">
          <mxGeometry width="50" height="50" relative="1" as="geometry">
            <mxPoint x="670" y="150" as="sourcePoint" />
            <mxPoint x="640" y="150" as="targetPoint" />
          </mxGeometry>
        </mxCell>
        <mxCell id="FLUQt_370B9gIvD1hoNB-31" value="" style="endArrow=none;html=1;rounded=0;entryX=0.75;entryY=1;entryDx=0;entryDy=0;exitX=0.5;exitY=0;exitDx=0;exitDy=0;shadow=1;" parent="1" source="FLUQt_370B9gIvD1hoNB-11" target="FLUQt_370B9gIvD1hoNB-2" edge="1">
          <mxGeometry width="50" height="50" relative="1" as="geometry">
            <mxPoint x="600" y="180" as="sourcePoint" />
            <mxPoint x="620" y="200" as="targetPoint" />
          </mxGeometry>
        </mxCell>
      </root>
    </mxGraphModel>
  </diagram>
</mxfile>
